<svg width="85" height="85" viewBox="0 0 85 85" fill="none" xmlns="http://www.w3.org/2000/svg">
<path fill-rule="evenodd" clip-rule="evenodd" d="M64.1042 50.575C66.0875 47.1042 67.2917 43.1729 67.2917 38.9583H61.2708C61.2708 41.5792 60.7042 44.0229 59.7479 46.2187L64.1042 50.575ZM47 33.4204L53.125 39.525V38.9583V17.7083C53.125 14.8904 52.0056 12.1879 50.013 10.1953C48.0204 8.20275 45.3179 7.08333 42.5 7.08333C39.6821 7.08333 36.9796 8.20275 34.987 10.1953C32.9944 12.1879 31.875 14.8904 31.875 17.7083V18.3458L38 24.4504V17.5C38 15.0147 40.0147 13 42.5 13C44.9853 13 47 15.0147 47 17.5V33.4204ZM46.342 41.8441L74.375 69.8771L69.8771 74.375L55.0375 59.5354C52.3104 61.1646 49.2646 62.2625 46.0417 62.7583V74.375H38.9583V62.7583C27.3417 61.0229 17.7083 51.0354 17.7083 38.9583H23.7292C23.7292 49.5833 32.725 57.0208 42.5 57.0208C45.3688 57.0208 48.1667 56.3479 50.6813 55.1792L44.8021 49.3L42.5 49.5833C39.6821 49.5833 36.9796 48.4639 34.987 46.4713C32.9944 44.4788 31.875 41.7763 31.875 38.9583V36.4083L21.25 25.7656L10.625 15.1229L15.1229 10.625L38 33.5021V39.5C38 41.9853 40.0147 44 42.5 44C44.1265 44 45.5514 43.1371 46.342 41.8441Z" fill="black"/>
</svg>
