<svg width="85" height="85" viewBox="0 0 85 85" fill="none" xmlns="http://www.w3.org/2000/svg">
<path d="M61.2708 38.9583C61.2708 49.5833 52.275 57.0208 42.5 57.0208C32.725 57.0208 23.7291 49.5833 23.7291 38.9583H17.7083C17.7083 51.0354 27.3416 61.0229 38.9583 62.7583V74.375H46.0416V62.7583C57.6583 61.0229 67.2916 51.0354 67.2916 38.9583M38.25 17.3542C38.25 15.0167 40.1625 13.1042 42.5 13.1042C44.8375 13.1042 46.75 15.0167 46.75 17.3542L46.7146 39.3125C46.7146 41.65 44.8375 43.5625 42.5 43.5625C40.1625 43.5625 38.25 41.65 38.25 39.3125M42.5 49.5833C45.3179 49.5833 48.0204 48.4639 50.013 46.4713C52.0056 44.4788 53.125 41.7763 53.125 38.9583V17.7083C53.125 14.8904 52.0056 12.1879 50.013 10.1953C48.0204 8.20275 45.3179 7.08333 42.5 7.08333C39.6821 7.08333 36.9795 8.20275 34.987 10.1953C32.9944 12.1879 31.875 14.8904 31.875 17.7083V38.9583C31.875 41.7763 32.9944 44.4788 34.987 46.4713C36.9795 48.4639 39.6821 49.5833 42.5 49.5833Z" fill="black"/>
</svg>
