<svg width="88" height="119" viewBox="0 0 88 119" fill="none" xmlns="http://www.w3.org/2000/svg">
<path d="M77.3143 56.3684C77.3143 75.1579 61.3486 88.3105 44 88.3105C26.6514 88.3105 10.6857 75.1579 10.6857 56.3684H0C0 77.7258 17.0971 95.3879 37.7143 98.4568V119H50.2857V98.4568C70.9029 95.3879 88 77.7258 88 56.3684M36.4571 18.1632C36.4571 14.0295 39.8514 10.6474 44 10.6474C48.1486 10.6474 51.5429 14.0295 51.5429 18.1632L51.48 56.9947C51.48 61.1284 48.1486 64.5105 44 64.5105C39.8514 64.5105 36.4571 61.1284 36.4571 56.9947M44 75.1579C49.0012 75.1579 53.7976 73.1783 57.334 69.6546C60.8704 66.1309 62.8571 61.3517 62.8571 56.3684V18.7895C62.8571 13.8062 60.8704 9.02702 57.334 5.50331C53.7976 1.9796 49.0012 0 44 0C38.9988 0 34.2024 1.9796 30.666 5.50331C27.1296 9.02702 25.1429 13.8062 25.1429 18.7895V56.3684C25.1429 61.3517 27.1296 66.1309 30.666 69.6546C34.2024 73.1783 38.9988 75.1579 44 75.1579Z" fill="#FF8181"/>
</svg>
