<svg width="25" height="25" viewBox="0 0 25 25" fill="none" xmlns="http://www.w3.org/2000/svg">
<g clip-path="url(#clip0_13_101)">
<path fill-rule="evenodd" clip-rule="evenodd" d="M8.64365 3.29571C8.64365 1.95171 9.73394 0.86142 11.0779 0.86142H22.1077C22.753 0.861874 23.3717 1.11854 23.8278 1.57501C24.284 2.03148 24.5402 2.65039 24.5402 3.29571V22.2043C24.5402 22.8499 24.2838 23.4691 23.8272 23.9256C23.3707 24.3821 22.7516 24.6386 22.1059 24.6386H13.7059C13.8379 24.2717 13.9117 23.8757 13.9117 23.4643V20.3477C13.9117 20.2054 13.9048 20.0649 13.8945 19.9243C14.1928 19.9774 14.4979 20.0049 14.8048 20.0049H17.1568C17.9821 20.0049 18.7797 19.7072 19.4032 19.1664C20.0267 18.6257 20.4342 17.8782 20.5509 17.0612C20.6676 16.2441 20.4857 15.4124 20.0386 14.7187C19.5914 14.0251 18.9091 13.5159 18.1168 13.2848C18.6691 12.769 19.0956 12.1334 19.3634 11.4267C19.6313 10.7201 19.7334 9.96146 19.6618 9.20917C19.5903 8.45688 19.347 7.73106 18.9507 7.08762C18.5544 6.44418 18.0158 5.90029 17.3761 5.49785C16.7365 5.09542 16.0131 4.84518 15.2615 4.76641C14.5099 4.68764 13.7503 4.78244 13.0412 5.04352C12.332 5.30459 11.6923 5.72497 11.1712 6.27227C10.6501 6.81957 10.2616 7.47917 10.0357 8.20028C9.59249 8.01188 9.12507 7.88666 8.64708 7.82828V3.29571H8.64365ZM11.9522 9.67628C11.9522 8.93519 12.2466 8.22445 12.7707 7.70042C13.2947 7.17639 14.0054 6.88199 14.7465 6.88199C15.4876 6.88199 16.1983 7.17639 16.7224 7.70042C17.2464 8.22445 17.5408 8.93519 17.5408 9.67628C17.5408 10.4174 17.2464 11.1281 16.7224 11.6521C16.1983 12.1762 15.4876 12.4706 14.7465 12.4706C14.0054 12.4706 13.2947 12.1762 12.7707 11.6521C12.2466 11.1281 11.9522 10.4174 11.9522 9.67628ZM12.0945 12.4534L12.0979 12.4586L14.6522 15.0128C14.6722 15.033 14.696 15.049 14.7221 15.0599C14.7483 15.0708 14.7764 15.0763 14.8048 15.0763H17.1551C17.5529 15.0763 17.9344 15.2343 18.2157 15.5156C18.497 15.7969 18.6551 16.1785 18.6551 16.5763C18.6551 16.9741 18.497 17.3556 18.2157 17.6369C17.9344 17.9182 17.5529 18.0763 17.1551 18.0763H14.8048C13.9528 18.0763 13.1351 17.7386 12.5317 17.1351L11.0334 15.6369L9.81622 16.854L11.0402 18.0746C11.6419 18.678 11.9814 19.4957 11.9814 20.3477V23.0357C11.9814 23.4335 11.8233 23.8151 11.542 24.0964C11.2607 24.3777 10.8792 24.5357 10.4814 24.5357C10.0835 24.5357 9.70201 24.3777 9.42071 24.0964C9.1394 23.8151 8.98137 23.4335 8.98137 23.0357V20.3477C8.98101 20.291 8.95821 20.2368 8.91794 20.1968L7.67508 18.9523C7.116 19.377 6.43321 19.607 5.73108 19.6071H2.27679C1.87897 19.6071 1.49744 19.4491 1.21613 19.1678C0.93483 18.8865 0.776794 18.505 0.776794 18.1071C0.776794 17.7093 0.93483 17.3278 1.21613 17.0465C1.49744 16.7652 1.87897 16.6071 2.27679 16.6071H5.73108C5.75944 16.6072 5.78753 16.6016 5.81372 16.5907C5.83992 16.5798 5.86368 16.5639 5.88365 16.5437L8.91108 13.5146L8.17737 12.7826C8.13745 12.7423 8.08321 12.7195 8.02651 12.7191H4.90994C4.51211 12.7191 4.13058 12.5611 3.84928 12.2798C3.56797 11.9985 3.40994 11.617 3.40994 11.2191C3.40994 10.8213 3.56797 10.4398 3.84928 10.1585C4.13058 9.87717 4.51211 9.71913 4.90994 9.71913H8.02822C8.88022 9.71913 9.69794 10.0586 10.2997 10.662L12.0894 12.45L12.0945 12.4534Z" fill="#C8CBD1"/>
</g>
<defs>
<clipPath id="clip0_13_101">
<rect width="24" height="24" fill="white" transform="translate(0.5625 0.75)"/>
</clipPath>
</defs>
</svg>
