<svg width="25" height="25" viewBox="0 0 25 25" fill="none" xmlns="http://www.w3.org/2000/svg">
<g clip-path="url(#clip0_13_191)">
<path fill-rule="evenodd" clip-rule="evenodd" d="M8.64365 2.62903C8.64365 1.28503 9.73394 0.194748 11.0779 0.194748H22.1077C22.753 0.195202 23.3717 0.451872 23.8278 0.90834C24.284 1.36481 24.5402 1.98372 24.5402 2.62903V21.5376C24.5402 22.1832 24.2838 22.8024 23.8272 23.2589C23.3707 23.7154 22.7516 23.9719 22.1059 23.9719H13.7059C13.8379 23.605 13.9117 23.209 13.9117 22.7976V19.681C13.9117 19.5387 13.9048 19.3982 13.8945 19.2576C14.1928 19.3108 14.4979 19.3382 14.8048 19.3382H17.1568C17.9821 19.3382 18.7797 19.0405 19.4032 18.4997C20.0267 17.959 20.4342 17.2115 20.5509 16.3945C20.6676 15.5775 20.4857 14.7458 20.0386 14.0521C19.5914 13.3584 18.9091 12.8493 18.1168 12.6182C18.6691 12.1024 19.0956 11.4667 19.3634 10.7601C19.6313 10.0535 19.7334 9.29479 19.6618 8.5425C19.5903 7.79021 19.347 7.06439 18.9507 6.42095C18.5544 5.77751 18.0158 5.23362 17.3761 4.83118C16.7365 4.42874 16.0131 4.1785 15.2615 4.09973C14.5099 4.02096 13.7503 4.11577 13.0412 4.37685C12.332 4.63792 11.6923 5.0583 11.1712 5.6056C10.6501 6.15289 10.2616 6.8125 10.0357 7.53361C9.59249 7.34521 9.12507 7.21999 8.64708 7.16161V2.62903H8.64365ZM11.9522 9.00961C11.9522 8.26851 12.2466 7.55778 12.7707 7.03375C13.2947 6.50972 14.0054 6.21532 14.7465 6.21532C15.4876 6.21532 16.1983 6.50972 16.7224 7.03375C17.2464 7.55778 17.5408 8.26851 17.5408 9.00961C17.5408 9.7507 17.2464 10.4614 16.7224 10.9855C16.1983 11.5095 15.4876 11.8039 14.7465 11.8039C14.0054 11.8039 13.2947 11.5095 12.7707 10.9855C12.2466 10.4614 11.9522 9.7507 11.9522 9.00961ZM12.0945 11.7867L12.0979 11.7919L14.6522 14.3462C14.6722 14.3663 14.696 14.3823 14.7221 14.3932C14.7483 14.4041 14.7764 14.4097 14.8048 14.4096H17.1551C17.5529 14.4096 17.9344 14.5676 18.2157 14.8489C18.497 15.1303 18.6551 15.5118 18.6551 15.9096C18.6551 16.3074 18.497 16.689 18.2157 16.9703C17.9344 17.2516 17.5529 17.4096 17.1551 17.4096H14.8048C13.9528 17.4096 13.1351 17.0719 12.5317 16.4685L11.0334 14.9702L9.81622 16.1873L11.0402 17.4079C11.6419 18.0113 11.9814 18.829 11.9814 19.681V22.369C11.9814 22.7669 11.8233 23.1484 11.542 23.4297C11.2607 23.711 10.8792 23.869 10.4814 23.869C10.0835 23.869 9.70201 23.711 9.42071 23.4297C9.1394 23.1484 8.98137 22.7669 8.98137 22.369V19.681C8.98101 19.6243 8.95821 19.5701 8.91794 19.5302L7.67508 18.2856C7.116 18.7104 6.43321 18.9404 5.73108 18.9405H2.27679C1.87897 18.9405 1.49744 18.7824 1.21613 18.5011C0.93483 18.2198 0.776794 17.8383 0.776794 17.4405C0.776794 17.0426 0.93483 16.6611 1.21613 16.3798C1.49744 16.0985 1.87897 15.9405 2.27679 15.9405H5.73108C5.75944 15.9405 5.78753 15.9349 5.81372 15.924C5.83992 15.9132 5.86368 15.8972 5.88365 15.877L8.91108 12.8479L8.17737 12.1159C8.13745 12.0756 8.08321 12.0528 8.02651 12.0525H4.90994C4.51211 12.0525 4.13058 11.8944 3.84928 11.6131C3.56797 11.3318 3.40994 10.9503 3.40994 10.5525C3.40994 10.1546 3.56797 9.77311 3.84928 9.4918C4.13058 9.2105 4.51211 9.05246 4.90994 9.05246H8.02822C8.88022 9.05246 9.69794 9.39189 10.2997 9.99532L12.0894 11.7833L12.0945 11.7867Z" fill="#FA4549"/>
</g>
<defs>
<clipPath id="clip0_13_191">
<rect width="24" height="24" fill="white" transform="translate(0.5625 0.083313)"/>
</clipPath>
</defs>
</svg>
