<svg width="25" height="26" viewBox="0 0 25 26" fill="none" xmlns="http://www.w3.org/2000/svg">
<mask id="path-1-inside-1_12_941" fill="white">
<path fill-rule="evenodd" clip-rule="evenodd" d="M9.68879 3.37417L3.43879 7.54084C2.27963 8.31361 1.58337 9.61457 1.58337 11.0077V18.5C1.58337 20.8012 3.44885 22.6667 5.75004 22.6667H18.25C20.5512 22.6667 22.4167 20.8012 22.4167 18.5V11.0077C22.4167 9.61457 21.7205 8.31361 20.5613 7.54084L14.3113 3.37417C12.9117 2.44111 11.0884 2.44111 9.68879 3.37417ZM8.87504 16.4167C8.29974 16.4167 7.83337 16.883 7.83337 17.4583C7.83337 18.0336 8.29974 18.5 8.87504 18.5H15.125C15.7003 18.5 16.1667 18.0336 16.1667 17.4583C16.1667 16.883 15.7003 16.4167 15.125 16.4167L8.87504 16.4167Z"/>
</mask>
<path fill-rule="evenodd" clip-rule="evenodd" d="M9.68879 3.37417L3.43879 7.54084C2.27963 8.31361 1.58337 9.61457 1.58337 11.0077V18.5C1.58337 20.8012 3.44885 22.6667 5.75004 22.6667H18.25C20.5512 22.6667 22.4167 20.8012 22.4167 18.5V11.0077C22.4167 9.61457 21.7205 8.31361 20.5613 7.54084L14.3113 3.37417C12.9117 2.44111 11.0884 2.44111 9.68879 3.37417ZM8.87504 16.4167C8.29974 16.4167 7.83337 16.883 7.83337 17.4583C7.83337 18.0336 8.29974 18.5 8.87504 18.5H15.125C15.7003 18.5 16.1667 18.0336 16.1667 17.4583C16.1667 16.883 15.7003 16.4167 15.125 16.4167L8.87504 16.4167Z" fill="#FA4549"/>
<path d="M3.43879 7.54084L4.59441 9.27427H4.59441L3.43879 7.54084ZM9.68879 3.37417L10.8444 5.10761L9.68879 3.37417ZM20.5613 7.54084L19.4057 9.27427L20.5613 7.54084ZM14.3113 3.37417L15.4669 1.64073L15.4669 1.64073L14.3113 3.37417ZM8.87504 16.4167V14.3333V16.4167ZM16.1667 17.4583L18.25 17.4583V17.4583H16.1667ZM15.125 16.4167V18.5V16.4167ZM4.59441 9.27427L10.8444 5.10761L8.53316 1.64073L2.28316 5.8074L4.59441 9.27427ZM3.66671 11.0077C3.66671 10.3111 4.01483 9.66066 4.59441 9.27427L2.28316 5.8074C0.544419 6.96656 -0.499959 8.91801 -0.499959 11.0077H3.66671ZM3.66671 18.5V11.0077H-0.499959V18.5H3.66671ZM5.75004 20.5833C4.59945 20.5833 3.66671 19.6506 3.66671 18.5H-0.499959C-0.499959 21.9518 2.29826 24.75 5.75004 24.75V20.5833ZM18.25 20.5833H5.75004V24.75H18.25V20.5833ZM20.3334 18.5C20.3334 19.6506 19.4006 20.5833 18.25 20.5833V24.75C21.7018 24.75 24.5 21.9518 24.5 18.5H20.3334ZM20.3334 11.0077V18.5H24.5V11.0077H20.3334ZM19.4057 9.27427C19.9852 9.66066 20.3334 10.3111 20.3334 11.0077H24.5C24.5 8.918 23.4557 6.96656 21.7169 5.8074L19.4057 9.27427ZM13.1557 5.1076L19.4057 9.27427L21.7169 5.8074L15.4669 1.64073L13.1557 5.1076ZM10.8444 5.10761C11.5442 4.64108 12.4559 4.64108 13.1557 5.1076L15.4669 1.64073C13.3675 0.241147 10.6325 0.241151 8.53316 1.64073L10.8444 5.10761ZM9.91671 17.4583C9.91671 18.0336 9.45034 18.5 8.87504 18.5V14.3333C7.14915 14.3333 5.75004 15.7324 5.75004 17.4583H9.91671ZM8.87504 16.4167C9.45034 16.4167 9.91671 16.883 9.91671 17.4583H5.75004C5.75004 19.1842 7.14915 20.5833 8.87504 20.5833V16.4167ZM15.125 16.4167H8.87504V20.5833H15.125V16.4167ZM14.0834 17.4583C14.0834 16.883 14.5497 16.4167 15.125 16.4167V20.5833C16.8509 20.5833 18.25 19.1842 18.25 17.4583L14.0834 17.4583ZM15.125 18.5C14.5497 18.5 14.0834 18.0336 14.0834 17.4583H18.25C18.25 15.7324 16.8509 14.3333 15.125 14.3333V18.5ZM8.87504 18.5L15.125 18.5L15.125 14.3333L8.87504 14.3333L8.87504 18.5Z" fill="#FA4549" mask="url(#path-1-inside-1_12_941)"/>
</svg>
