<svg width="25" height="26" viewBox="0 0 25 26" fill="none" xmlns="http://www.w3.org/2000/svg">
<mask id="path-1-inside-1_12_1067" fill="white">
<path fill-rule="evenodd" clip-rule="evenodd" d="M9.68877 4.04082L3.43877 8.20749C2.27961 8.98027 1.58335 10.2812 1.58335 11.6744V19.1667C1.58335 21.4678 3.44883 23.3333 5.75002 23.3333H18.25C20.5512 23.3333 22.4167 21.4678 22.4167 19.1667V11.6744C22.4167 10.2812 21.7204 8.98026 20.5613 8.20749L14.3113 4.04082C12.9117 3.10777 11.0884 3.10777 9.68877 4.04082ZM8.87502 17.0833C8.29972 17.0833 7.83335 17.5497 7.83335 18.125C7.83335 18.7003 8.29972 19.1667 8.87502 19.1667H15.125C15.7003 19.1667 16.1667 18.7003 16.1667 18.125C16.1667 17.5497 15.7003 17.0833 15.125 17.0833L8.87502 17.0833Z"/>
</mask>
<path fill-rule="evenodd" clip-rule="evenodd" d="M9.68877 4.04082L3.43877 8.20749C2.27961 8.98027 1.58335 10.2812 1.58335 11.6744V19.1667C1.58335 21.4678 3.44883 23.3333 5.75002 23.3333H18.25C20.5512 23.3333 22.4167 21.4678 22.4167 19.1667V11.6744C22.4167 10.2812 21.7204 8.98026 20.5613 8.20749L14.3113 4.04082C12.9117 3.10777 11.0884 3.10777 9.68877 4.04082ZM8.87502 17.0833C8.29972 17.0833 7.83335 17.5497 7.83335 18.125C7.83335 18.7003 8.29972 19.1667 8.87502 19.1667H15.125C15.7003 19.1667 16.1667 18.7003 16.1667 18.125C16.1667 17.5497 15.7003 17.0833 15.125 17.0833L8.87502 17.0833Z" fill="#C8CBD1"/>
<path d="M3.43877 8.20749L4.59439 9.94093L4.59439 9.94093L3.43877 8.20749ZM9.68877 4.04082L10.8444 5.77426L9.68877 4.04082ZM20.5613 8.20749L19.4056 9.94093L20.5613 8.20749ZM14.3113 4.04082L15.4669 2.30738L14.3113 4.04082ZM8.87502 17.0833L8.87502 15H8.87502V17.0833ZM16.1667 18.125L18.25 18.125V18.125H16.1667ZM15.125 17.0833V19.1667V17.0833ZM4.59439 9.94093L10.8444 5.77426L8.53314 2.30739L2.28314 6.47405L4.59439 9.94093ZM3.66669 11.6744C3.66669 10.9778 4.01481 10.3273 4.59439 9.94093L2.28314 6.47405C0.544399 7.63322 -0.49998 9.58466 -0.49998 11.6744H3.66669ZM3.66669 19.1667V11.6744H-0.49998V19.1667H3.66669ZM5.75002 21.25C4.59943 21.25 3.66669 20.3172 3.66669 19.1667H-0.49998C-0.49998 22.6184 2.29824 25.4167 5.75002 25.4167V21.25ZM18.25 21.25H5.75002V25.4167H18.25V21.25ZM20.3334 19.1667C20.3334 20.3172 19.4006 21.25 18.25 21.25V25.4167C21.7018 25.4167 24.5 22.6184 24.5 19.1667H20.3334ZM20.3334 11.6744V19.1667H24.5V11.6744H20.3334ZM19.4056 9.94093C19.9852 10.3273 20.3334 10.9778 20.3334 11.6744H24.5C24.5 9.58466 23.4556 7.63321 21.7169 6.47405L19.4056 9.94093ZM13.1556 5.77426L19.4056 9.94093L21.7169 6.47405L15.4669 2.30738L13.1556 5.77426ZM10.8444 5.77426C11.5442 5.30773 12.4559 5.30773 13.1556 5.77426L15.4669 2.30738C13.3675 0.907802 10.6325 0.907806 8.53314 2.30739L10.8444 5.77426ZM9.91669 18.125C9.91669 18.7003 9.45032 19.1667 8.87502 19.1667V15C7.14913 15 5.75002 16.3991 5.75002 18.125H9.91669ZM8.87502 17.0833C9.45032 17.0833 9.91669 17.5497 9.91669 18.125H5.75002C5.75002 19.8509 7.14913 21.25 8.87502 21.25V17.0833ZM15.125 17.0833H8.87502V21.25H15.125V17.0833ZM14.0834 18.125C14.0834 17.5497 14.5497 17.0833 15.125 17.0833V21.25C16.8509 21.25 18.25 19.8509 18.25 18.125L14.0834 18.125ZM15.125 19.1667C14.5497 19.1667 14.0834 18.7003 14.0834 18.125H18.25C18.25 16.3991 16.8509 15 15.125 15V19.1667ZM8.87502 19.1667L15.125 19.1667V15L8.87502 15L8.87502 19.1667Z" fill="#C8CBD1" mask="url(#path-1-inside-1_12_1067)"/>
</svg>
