<svg width="25" height="25" viewBox="0 0 25 25" fill="none" xmlns="http://www.w3.org/2000/svg">
<path d="M4.16278 6.29708L9.1173 4.8815C9.31108 4.82614 9.51706 4.83061 9.70825 4.89434L14.5343 6.50302C15.1079 6.69421 15.7258 6.70764 16.3071 6.54155L20.1628 5.43994C20.8016 5.25742 21.4375 5.73708 21.4375 6.40146V18.2414C21.4375 18.6879 21.1415 19.0803 20.7122 19.2029L15.7577 20.6185C15.5639 20.6739 15.3579 20.6694 15.1668 20.6057L10.3407 18.997C9.76714 18.8058 9.14919 18.7924 8.56786 18.9585L4.71222 20.0601C4.07341 20.2426 3.4375 19.7629 3.4375 19.0985V7.2586C3.4375 6.81212 3.73348 6.41974 4.16278 6.29708Z" stroke="#C8CBD1" stroke-width="2" stroke-linejoin="round"/>
<path d="M9.4375 4.75L9.4375 18.75" stroke="#C8CBD1" stroke-width="2"/>
<path d="M15.4375 6.75L15.4375 20.75" stroke="#C8CBD1" stroke-width="2"/>
</svg>
