<svg width="25" height="25" viewBox="0 0 25 25" fill="none" xmlns="http://www.w3.org/2000/svg">
<path d="M4.16278 5.96374L9.1173 4.54816C9.31108 4.49279 9.51706 4.49727 9.70825 4.561L14.5343 6.16968C15.1079 6.36087 15.7258 6.3743 16.3071 6.2082L20.1628 5.10659C20.8016 4.92407 21.4375 5.40374 21.4375 6.06812V17.9081C21.4375 18.3545 21.1415 18.7469 20.7122 18.8696L15.7577 20.2852C15.5639 20.3405 15.3579 20.336 15.1668 20.2723L10.3407 18.6636C9.76714 18.4724 9.14919 18.459 8.56786 18.6251L4.71222 19.7267C4.07341 19.9092 3.4375 19.4296 3.4375 18.7652V6.92526C3.4375 6.47878 3.73348 6.08639 4.16278 5.96374Z" stroke="#FA4549" stroke-width="2" stroke-linejoin="round"/>
<path d="M9.4375 4.41666L9.4375 18.4167" stroke="#FA4549" stroke-width="2"/>
<path d="M15.4375 6.41666L15.4375 20.4167" stroke="#FA4549" stroke-width="2"/>
</svg>
